<mxfile host="app.diagrams.net" modified="2020-06-19T08:49:33.492Z" agent="5.0 (Windows NT 10.0; Win64; x64) AppleWebKit/537.36 (KHTML, like Gecko) Chrome/83.0.4103.106 Safari/537.36" etag="eSld-v7eYFrPv6-BZFRA" version="13.2.6" type="github">
  <diagram id="dvyr7igO9mOEwyfIGMjK" name="Page-1">
    <mxGraphModel dx="509" dy="577" grid="1" gridSize="10" guides="1" tooltips="1" connect="1" arrows="1" fold="1" page="1" pageScale="1" pageWidth="827" pageHeight="1169" math="0" shadow="0">
      <root>
        <mxCell id="0" />
        <mxCell id="1" parent="0" />
        <mxCell id="SydA14vr8y36qPlabKjg-1" value="CommentInsertController" style="rounded=0;whiteSpace=wrap;html=1;" vertex="1" parent="1">
          <mxGeometry x="125" y="110" width="150" height="40" as="geometry" />
        </mxCell>
        <mxCell id="SydA14vr8y36qPlabKjg-2" value="Service" style="rounded=0;whiteSpace=wrap;html=1;" vertex="1" parent="1">
          <mxGeometry x="370" y="110" width="130" height="40" as="geometry" />
        </mxCell>
        <mxCell id="SydA14vr8y36qPlabKjg-3" value="Dao" style="rounded=0;whiteSpace=wrap;html=1;" vertex="1" parent="1">
          <mxGeometry x="620" y="110" width="130" height="40" as="geometry" />
        </mxCell>
        <mxCell id="SydA14vr8y36qPlabKjg-4" value="" style="endArrow=none;dashed=1;html=1;" edge="1" parent="1">
          <mxGeometry width="50" height="50" relative="1" as="geometry">
            <mxPoint x="199.5" y="180" as="sourcePoint" />
            <mxPoint x="199.5" y="150" as="targetPoint" />
          </mxGeometry>
        </mxCell>
        <mxCell id="SydA14vr8y36qPlabKjg-5" value="" style="endArrow=none;dashed=1;html=1;" edge="1" parent="1" target="SydA14vr8y36qPlabKjg-9">
          <mxGeometry width="50" height="50" relative="1" as="geometry">
            <mxPoint x="200" y="400" as="sourcePoint" />
            <mxPoint x="210" y="235" as="targetPoint" />
          </mxGeometry>
        </mxCell>
        <mxCell id="SydA14vr8y36qPlabKjg-6" value="" style="endArrow=none;dashed=1;html=1;entryX=0.5;entryY=1;entryDx=0;entryDy=0;" edge="1" parent="1" source="SydA14vr8y36qPlabKjg-15" target="SydA14vr8y36qPlabKjg-2">
          <mxGeometry width="50" height="50" relative="1" as="geometry">
            <mxPoint x="510" y="180" as="sourcePoint" />
            <mxPoint x="505" y="340" as="targetPoint" />
          </mxGeometry>
        </mxCell>
        <mxCell id="SydA14vr8y36qPlabKjg-7" value="" style="endArrow=none;dashed=1;html=1;entryX=0.5;entryY=1;entryDx=0;entryDy=0;" edge="1" parent="1" source="SydA14vr8y36qPlabKjg-41" target="SydA14vr8y36qPlabKjg-3">
          <mxGeometry width="50" height="50" relative="1" as="geometry">
            <mxPoint x="820" y="415" as="sourcePoint" />
            <mxPoint x="590" y="160" as="targetPoint" />
          </mxGeometry>
        </mxCell>
        <mxCell id="SydA14vr8y36qPlabKjg-8" value="" style="endArrow=none;dashed=1;html=1;entryX=0.56;entryY=1.025;entryDx=0;entryDy=0;entryPerimeter=0;" edge="1" parent="1" target="SydA14vr8y36qPlabKjg-15">
          <mxGeometry width="50" height="50" relative="1" as="geometry">
            <mxPoint x="436" y="400" as="sourcePoint" />
            <mxPoint x="510" y="220" as="targetPoint" />
          </mxGeometry>
        </mxCell>
        <mxCell id="SydA14vr8y36qPlabKjg-9" value="" style="html=1;points=[];perimeter=orthogonalPerimeter;" vertex="1" parent="1">
          <mxGeometry x="195" y="180" width="10" height="110" as="geometry" />
        </mxCell>
        <mxCell id="SydA14vr8y36qPlabKjg-15" value="" style="html=1;points=[];perimeter=orthogonalPerimeter;" vertex="1" parent="1">
          <mxGeometry x="430" y="180" width="10" height="110" as="geometry" />
        </mxCell>
        <mxCell id="SydA14vr8y36qPlabKjg-16" value="commentInsert(Comment comment)" style="html=1;verticalAlign=bottom;endArrow=block;exitX=0.98;exitY=0.137;exitDx=0;exitDy=0;exitPerimeter=0;" edge="1" parent="1" target="SydA14vr8y36qPlabKjg-15">
          <mxGeometry x="-0.0578" width="80" relative="1" as="geometry">
            <mxPoint x="204.79999999999995" y="190.76999999999998" as="sourcePoint" />
            <mxPoint x="400" y="190.76999999999998" as="targetPoint" />
            <mxPoint as="offset" />
          </mxGeometry>
        </mxCell>
        <mxCell id="SydA14vr8y36qPlabKjg-40" value="insertComent(Comment comment)" style="html=1;verticalAlign=bottom;endArrow=block;exitX=1.22;exitY=0.22;exitDx=0;exitDy=0;exitPerimeter=0;" edge="1" parent="1">
          <mxGeometry x="-0.0578" width="80" relative="1" as="geometry">
            <mxPoint x="442.20000000000005" y="209.99999999999994" as="sourcePoint" />
            <mxPoint x="680" y="209.99999999999994" as="targetPoint" />
            <mxPoint as="offset" />
          </mxGeometry>
        </mxCell>
        <mxCell id="SydA14vr8y36qPlabKjg-41" value="" style="html=1;points=[];perimeter=orthogonalPerimeter;" vertex="1" parent="1">
          <mxGeometry x="680" y="180" width="10" height="110" as="geometry" />
        </mxCell>
        <mxCell id="SydA14vr8y36qPlabKjg-42" value="" style="endArrow=none;dashed=1;html=1;entryX=0.5;entryY=1;entryDx=0;entryDy=0;" edge="1" parent="1" target="SydA14vr8y36qPlabKjg-41">
          <mxGeometry width="50" height="50" relative="1" as="geometry">
            <mxPoint x="685" y="400" as="sourcePoint" />
            <mxPoint x="685" y="150" as="targetPoint" />
          </mxGeometry>
        </mxCell>
      </root>
    </mxGraphModel>
  </diagram>
</mxfile>
